<svg width="100" height="100" viewBox="0 0 100 100" fill="none" xmlns="http://www.w3.org/2000/svg">
  <!-- Основной круг -->
  <circle cx="50" cy="50" r="48" fill="#F5F1E8" stroke="#2E5B5B" stroke-width="4"/>
  
  <!-- Горы на заднем плане -->
  <path d="M8 60 L25 35 L35 45 L50 25 L65 40 L75 30 L92 55 L92 85 L8 85 Z" fill="#7FB3A3"/>
  
  <!-- Горная линия с точками -->
  <path d="M15 50 L25 35 L35 45 L50 25 L65 40 L75 30 L85 45" stroke="#2E5B5B" stroke-width="2" fill="none"/>
  <circle cx="25" cy="35" r="2" fill="#2E5B5B"/>
  <circle cx="50" cy="25" r="2" fill="#2E5B5B"/>
  <circle cx="75" cy="30" r="2" fill="#2E5B5B"/>
  
  <!-- Юрта -->
  <g transform="translate(40, 50)">
    <!-- Основание юрты -->
    <ellipse cx="10" cy="20" rx="18" ry="8" fill="#DAA520"/>
    <!-- Стены юрты -->
    <path d="M-8 20 Q10 5 28 20 L28 15 Q10 0 -8 15 Z" fill="#B8860B"/>
    <!-- Крыша юрты -->
    <path d="M-8 15 Q10 -5 28 15 L25 12 Q10 -2 -5 12 Z" fill="#DAA520"/>
    <!-- Вход в юрту -->
    <ellipse cx="10" cy="18" rx="4" ry="6" fill="#2E5B5B"/>
    <!-- Декоративные полосы -->
    <line x1="-6" y1="17" x2="26" y2="17" stroke="#8B4513" stroke-width="1"/>
    <line x1="-4" y1="14" x2="24" y2="14" stroke="#8B4513" stroke-width="0.5"/>
  </g>
  
  <!-- Дерево -->
  <g transform="translate(20, 65)">
    <line x1="0" y1="0" x2="0" y2="15" stroke="#8B4513" stroke-width="2"/>
    <path d="M-3 0 Q0 -8 3 0 Q1 -5 0 -10 Q-1 -5 -3 0" fill="#228B22"/>
  </g>
  
  <!-- Холмы на переднем плане -->
  <path d="M8 70 Q30 65 50 70 Q70 65 92 70 L92 85 L8 85 Z" fill="#9BC5A5"/>
</svg> 